<svg width="50" height="38" viewBox="0 0 50 38" fill="none" xmlns="http://www.w3.org/2000/svg">
<path d="M49.1251 35.8599C49.1251 36.2756 48.9732 36.6354 48.6694 36.9392C48.3655 37.243 48.0058 37.3949 47.59 37.3949C47.1743 37.3949 46.8145 37.243 46.5107 36.9392C46.2069 36.6354 46.055 36.2756 46.055 35.8599V15.6644L29.1215 24.1551C27.8422 24.7947 26.3232 25.1145 24.5643 25.1145C22.8054 25.1145 21.2863 24.7947 20.0071 24.1551L1.87432 15.0887C0.627093 14.4491 0.003479 13.6896 0.003479 12.8101C0.003479 11.9307 0.627093 11.1871 1.87432 10.5795L20.0071 1.51312C21.2863 0.873513 22.8054 0.553711 24.5643 0.553711C26.3232 0.553711 27.8422 0.873513 29.1215 1.51312L47.2542 10.5795C48.3416 11.1232 48.9492 11.7948 49.0771 12.5943C49.1091 12.6262 49.1251 12.6902 49.1251 12.7861V35.8599ZM30.6565 27.2252L39.9148 22.5721V29.3359C39.9148 30.711 38.4197 31.8863 35.4296 32.8617C32.4394 33.8371 28.8176 34.3248 24.5643 34.3248C20.3109 34.3248 16.6891 33.8371 13.699 32.8617C10.7089 31.8863 9.21378 30.711 9.21378 29.3359V22.5721L18.472 27.2252C19.7513 27.8648 21.782 28.1846 24.5643 28.1846C27.3466 28.1846 29.3773 27.8648 30.6565 27.2252Z" fill="#434343"/>
</svg>
