<svg width="40" height="38" viewBox="0 0 40 38" fill="none" xmlns="http://www.w3.org/2000/svg">
<path d="M38.6878 18.3535L21.0121 0.631284C20.8848 0.503336 20.7336 0.401828 20.5672 0.332569C20.4008 0.263311 20.2224 0.227661 20.0422 0.227661C19.8621 0.227661 19.6837 0.263311 19.5173 0.332569C19.3509 0.401828 19.1997 0.503336 19.0724 0.631284L1.39666 18.3535C0.881711 18.8702 0.589905 19.572 0.589905 20.304C0.589905 21.8239 1.8215 23.0596 3.33632 23.0596H5.19873V35.7054C5.19873 36.4675 5.81239 37.0832 6.57194 37.0832H17.2958V27.4385H22.1021V37.0832H33.5126C34.2721 37.0832 34.8858 36.4675 34.8858 35.7054V23.0596H36.7482C37.4777 23.0596 38.1772 22.7711 38.6921 22.2501C39.7607 21.1737 39.7607 19.4299 38.6878 18.3535Z" fill="#434343"/>
</svg>
