<svg width="41" height="36" viewBox="0 0 41 36" fill="none" xmlns="http://www.w3.org/2000/svg">
<path d="M13.5608 32.6717C14.1567 32.6717 14.6764 32.7344 15.1199 32.8599C15.5633 32.9853 15.9791 33.1665 16.3671 33.4035C16.7551 33.6405 17.1224 33.9263 17.4688 34.2608C17.8153 34.5954 18.1894 34.9579 18.5913 35.3482H0.25708V3.23021H2.91783V32.6717H13.5608ZM13.5608 0.553711C14.4893 0.553711 15.404 0.665232 16.3047 0.888273C17.2055 1.11131 18.0647 1.45982 18.8823 1.93378V31.9398C18.134 31.3125 17.3025 30.8316 16.3879 30.497C15.4733 30.1625 14.5309 29.9952 13.5608 29.9952H5.57859V0.553711H13.5608ZM40.1684 3.23021V35.3482H21.8341C22.2221 34.9579 22.5894 34.5954 22.9358 34.2608C23.2823 33.9263 23.6495 33.6475 24.0376 33.4244C24.4256 33.2014 24.8413 33.0202 25.2848 32.8808C25.7282 32.7414 26.2549 32.6717 26.8646 32.6717H37.5076V3.23021H40.1684ZM26.8646 29.9952C25.8945 29.9952 24.9522 30.1625 24.0376 30.497C23.1229 30.8316 22.2914 31.3125 21.5431 31.9398V1.93378C22.3607 1.47376 23.2199 1.13222 24.1207 0.909183C25.0215 0.686142 25.9361 0.567651 26.8646 0.553711H34.8469V29.9952H26.8646Z" fill="#434343"/>
</svg>
