<svg width="45" height="39" viewBox="0 0 45 39" fill="none" xmlns="http://www.w3.org/2000/svg">
<path d="M27.2215 7.02984C29.2946 8.32965 30.7483 10.5292 31.013 13.0824C31.8584 13.4774 32.7968 13.7046 33.7916 13.7046C37.4236 13.7046 40.3674 10.7609 40.3674 7.12944C40.3674 3.49746 37.4236 0.553711 33.7916 0.553711C30.1944 0.55483 27.2764 3.44598 27.2215 7.02984ZM22.9136 20.4935C26.5456 20.4935 29.4893 17.5492 29.4893 13.9178C29.4893 10.2864 26.545 7.34262 22.9136 7.34262C19.2822 7.34262 16.3368 10.2869 16.3368 13.9183C16.3368 17.5498 19.2822 20.4935 22.9136 20.4935ZM25.7029 20.9417H20.1232C15.4807 20.9417 11.7038 24.7192 11.7038 29.3617V36.1853L11.7211 36.2922L12.1911 36.4393C16.6216 37.8236 20.4707 38.2852 23.6388 38.2852C29.8267 38.2852 33.4134 36.521 33.6344 36.4085L34.0737 36.1864H34.1207V29.3617C34.1223 24.7192 30.3454 20.9417 25.7029 20.9417ZM36.5821 14.1534H31.0454C30.9855 16.3686 30.0399 18.3633 28.5443 19.798C32.6709 21.0251 35.6902 24.8518 35.6902 29.3718V31.4745C41.1569 31.2742 44.3071 29.7248 44.5147 29.6207L44.9539 29.398H45.0009V22.5722C45.0009 17.9303 41.224 14.1534 36.5821 14.1534ZM11.3753 13.7057C12.6617 13.7057 13.8586 13.3303 14.8724 12.6907C15.1947 10.5885 16.3217 8.75155 17.9315 7.50041C17.9382 7.37731 17.9499 7.25533 17.9499 7.13112C17.9499 3.49914 15.0056 0.555389 11.3753 0.555389C7.74278 0.555389 4.79959 3.49914 4.79959 7.13112C4.79959 10.7614 7.74278 13.7057 11.3753 13.7057ZM17.2807 19.798C15.7923 18.3706 14.8501 16.3865 14.7812 14.1847C14.5759 14.1696 14.3728 14.1534 14.1635 14.1534H8.58433C3.94182 14.1534 0.164917 17.9303 0.164917 22.5722V29.3969L0.182263 29.5021L0.652277 29.6504C4.20648 30.76 7.37852 31.2714 10.1337 31.4325V29.3718C10.1348 24.8518 13.153 21.0262 17.2807 19.798Z" fill="#434343"/>
</svg>
