<svg width="38" height="39" viewBox="0 0 38 39" fill="none" xmlns="http://www.w3.org/2000/svg">
<path d="M18.9742 0.553711C20.7097 0.553711 22.386 0.777217 24.0031 1.22423C25.6202 1.67124 27.1256 2.30889 28.5192 3.13718C29.9129 3.96547 31.1882 4.95152 32.3451 6.09535C33.5021 7.23917 34.4882 8.51447 35.3033 9.92125C36.1184 11.328 36.7561 12.84 37.2163 14.4571C37.6764 16.0742 37.9065 17.7505 37.9065 19.486C37.9065 21.2215 37.683 22.8977 37.236 24.5149C36.789 26.132 36.1513 27.6374 35.323 29.031C34.4947 30.4246 33.5087 31.6999 32.3649 32.8569C31.221 34.0139 29.9457 34.9999 28.539 35.8151C27.1322 36.6302 25.6202 37.2679 24.0031 37.728C22.386 38.1882 20.7097 38.4183 18.9742 38.4183C17.2388 38.4183 15.5625 38.1948 13.9453 37.7478C12.3282 37.3007 10.8228 36.6631 9.42919 35.8348C8.03556 35.0065 6.76026 34.0205 5.60329 32.8766C4.44632 31.7328 3.46026 30.4575 2.64512 29.0507C1.82998 27.644 1.19233 26.1386 0.732171 24.5346C0.272011 22.9306 0.0419312 21.2477 0.0419312 19.486C0.0419312 17.7505 0.265437 16.0742 0.712449 14.4571C1.15946 12.84 1.79711 11.3346 2.6254 9.94097C3.45369 8.54734 4.43974 7.27204 5.58357 6.11507C6.72739 4.9581 8.00269 3.97204 9.40947 3.1569C10.8162 2.34176 12.3216 1.70411 13.9256 1.24395C15.5296 0.783791 17.2125 0.553711 18.9742 0.553711ZM20.2364 28.3211H17.7121V30.8454H20.2364V28.3211ZM20.3941 24.9882C20.3941 24.5017 20.4401 24.0416 20.5322 23.6077C20.6242 23.1738 20.8609 22.7663 21.2421 22.385C21.7549 21.8722 22.2611 21.3858 22.7607 20.9256C23.2603 20.4655 23.7073 19.9724 24.1017 19.4466C24.4961 18.9207 24.8182 18.3619 25.068 17.7703C25.3178 17.1786 25.4427 16.4884 25.4427 15.6995C25.4427 14.8055 25.2718 13.9707 24.93 13.195C24.5882 12.4193 24.128 11.7356 23.5495 11.144C22.971 10.5523 22.2874 10.0856 21.4985 9.74376C20.7097 9.40192 19.8682 9.23101 18.9742 9.23101C18.0802 9.23101 17.2453 9.40192 16.4696 9.74376C15.6939 10.0856 15.0103 10.5457 14.4186 11.1242C13.827 11.7027 13.3603 12.3864 13.0184 13.1752C12.6766 13.9641 12.5057 14.8055 12.5057 15.6995H15.3455C15.3455 15.1999 15.4376 14.7332 15.6216 14.2993C15.8057 13.8655 16.0686 13.4776 16.4105 13.1358C16.7523 12.794 17.1336 12.5376 17.5543 12.3667C17.975 12.1957 18.4483 12.0971 18.9742 12.0708C19.4738 12.0708 19.9405 12.1629 20.3744 12.3469C20.8083 12.531 21.1961 12.794 21.538 13.1358C21.8798 13.4776 22.1362 13.8589 22.3071 14.2796C22.478 14.7003 22.5766 15.1736 22.6029 15.6995C22.6029 16.2386 22.478 16.7185 22.2282 17.1392C21.9784 17.5599 21.6694 17.9609 21.3013 18.3422C20.9332 18.7234 20.5256 19.1179 20.0786 19.5254C19.6316 19.933 19.2306 20.3669 18.8756 20.827C18.5206 21.2872 18.2051 21.8197 17.929 22.4244C17.6529 23.0292 17.528 23.7326 17.5543 24.5346V25.7968H20.3941V24.9882Z" fill="#434343"/>
</svg>
